<svg width="99" height="42" viewBox="0 0 99 42" fill="none" xmlns="http://www.w3.org/2000/svg">
<path d="M16.4185 17.8206H8.67833L7.55771 21H0.0781832L8.73045 1.40209H16.5748L25.0447 21H17.513L16.4185 17.8206ZM14.8809 13.4162L12.5614 6.84885L10.2681 13.4162H14.8809ZM32.9383 13.8853V21H25.8237V1.40209H40.1051C40.9043 1.40209 41.608 1.42815 42.2161 1.48027C42.8241 1.51502 43.3541 1.58451 43.8058 1.68876C44.2749 1.77563 44.6832 1.90593 45.0307 2.07967C45.3955 2.23604 45.7256 2.43584 46.021 2.67908C47.4456 3.79102 48.158 5.43286 48.158 7.60462C48.158 9.08141 47.8105 10.2628 47.1155 11.1489C46.4206 12.035 45.3086 12.7213 43.7797 13.2077L48.6531 21H40.9391L36.8735 13.8853H32.9383ZM32.9383 9.48101H38.4893C39.4623 9.48101 40.1485 9.34202 40.5482 9.06404C40.9651 8.76868 41.1736 8.29089 41.1736 7.63068C41.1736 6.97047 40.9651 6.50137 40.5482 6.22338C40.1485 5.9454 39.4623 5.80641 38.4893 5.80641H32.9383V9.48101ZM75.9977 19.4103L73.5219 24.2055L67.163 20.9739C66.2943 21.2172 65.4517 21.3822 64.6351 21.4691C63.8359 21.5733 62.9324 21.6255 61.9247 21.6255C59.9441 21.6255 58.1546 21.3822 56.5562 20.8958C54.9751 20.4093 53.6286 19.7143 52.5167 18.8109C51.4048 17.9074 50.5447 16.8129 49.9366 15.5272C49.3459 14.2415 49.0506 12.7995 49.0506 11.201C49.0506 9.60263 49.3459 8.16059 49.9366 6.87491C50.5447 5.58923 51.4048 4.49466 52.5167 3.59121C53.6286 2.68777 54.9838 1.9928 56.5822 1.50633C58.1806 1.01986 59.9702 0.776621 61.9508 0.776621C63.9314 0.776621 65.7123 1.01986 67.2933 1.50633C68.8917 1.9928 70.2469 2.68777 71.3588 3.59121C72.4708 4.49466 73.3221 5.58923 73.9128 6.87491C74.5209 8.16059 74.825 9.60263 74.825 11.201C74.825 12.5041 74.6338 13.6855 74.2516 14.7453C73.8694 15.8052 73.2787 16.8042 72.4795 17.7424L75.9977 19.4103ZM61.9508 5.18094C60.1613 5.18094 58.7627 5.71085 57.755 6.77066C56.7646 7.83048 56.2695 9.30727 56.2695 11.201C56.2695 13.0948 56.7646 14.5716 57.755 15.6314C58.7627 16.6912 60.1613 17.2211 61.9508 17.2211C63.7229 17.2211 65.1042 16.6912 66.0945 15.6314C67.1022 14.5716 67.606 13.0948 67.606 11.201C67.606 9.30727 67.1022 7.83048 66.0945 6.77066C65.1042 5.71085 63.7229 5.18094 61.9508 5.18094ZM98.9998 1.40209V13.0253C98.9998 13.9635 98.9303 14.8062 98.7913 15.5532C98.6524 16.2829 98.4352 16.9345 98.1398 17.5078C97.8445 18.0812 97.4622 18.5937 96.9931 19.0454C96.5414 19.4798 95.9854 19.862 95.3252 20.1921C94.9082 20.4006 94.4044 20.6004 93.8137 20.7915C93.223 20.9653 92.5801 21.1129 91.8852 21.2345C91.2076 21.3562 90.4866 21.4517 89.7221 21.5212C88.975 21.5907 88.2106 21.6255 87.4287 21.6255C86.56 21.6255 85.7087 21.582 84.8747 21.4952C84.0582 21.4257 83.285 21.3127 82.5553 21.1564C81.8256 21 81.148 20.8176 80.5225 20.6091C79.9145 20.3832 79.3932 20.14 78.9589 19.8794C77.8643 19.2192 77.0738 18.3505 76.5873 17.2733C76.1009 16.1787 75.8576 14.7627 75.8576 13.0253V1.40209H82.9723V12.8168C82.9723 14.3805 83.3198 15.5098 84.0147 16.2048C84.7097 16.8824 85.8477 17.2211 87.4287 17.2211C89.0098 17.2211 90.1478 16.8824 90.8427 16.2048C91.5377 15.5098 91.8852 14.3805 91.8852 12.8168V1.40209H98.9998ZM7.84438 21.4021V41H0.72971V21.4021H7.84438ZM29.7904 21.4021V25.8064H22.8843V41H15.7696V25.8064H8.83734V21.4021H29.7904ZM51.4783 21.4021V25.8064H37.9266V28.9598H50.4098V33.3641H37.9266V36.5957H51.8432V41H30.8119V21.4021H51.4783ZM77.6086 27.1095L70.6503 28.1258C70.3028 27.1703 69.7121 26.4406 68.8781 25.9367C68.0442 25.4329 66.9844 25.1809 65.6987 25.1809C64.7952 25.1809 63.9787 25.3286 63.249 25.624C62.5192 25.902 61.8938 26.3016 61.3726 26.8228C60.8513 27.344 60.443 27.9782 60.1477 28.7252C59.8697 29.4723 59.7307 30.2976 59.7307 31.201C59.7307 32.1219 59.8697 32.9558 60.1477 33.7029C60.4257 34.45 60.8253 35.0841 61.3465 35.6054C61.8677 36.1266 62.5019 36.5262 63.249 36.8042C63.996 37.0822 64.83 37.2211 65.7508 37.2211C67.0365 37.2211 68.0876 36.9692 68.9042 36.4654C69.7382 35.9442 70.4244 35.1276 70.963 34.0156L77.8171 34.9278C77.0005 37.2211 75.6019 38.9151 73.6213 40.0097C71.658 41.0869 68.9998 41.6255 65.6466 41.6255C63.5964 41.6255 61.7548 41.3909 60.1216 40.9218C58.5058 40.4353 57.1333 39.7491 56.004 38.863C54.8747 37.9595 54.006 36.865 53.3979 35.5793C52.8072 34.2936 52.5118 32.8429 52.5118 31.2271C52.5118 29.5939 52.8332 28.0911 53.4761 26.7185C54.1189 25.346 55.031 24.2167 56.2125 23.3306C57.3939 22.4445 58.7317 21.8017 60.2259 21.4021C61.7374 20.9851 63.5183 20.7766 65.5684 20.7766C68.9737 20.7766 71.6667 21.2978 73.6473 22.3403C75.628 23.3827 76.9484 24.9725 77.6086 27.1095ZM98.8879 21.4021V25.8064H91.9817V41H84.867V25.8064H77.9348V21.4021H98.8879Z" fill="white"/>
</svg>
